<mxfile host="65bd71144e">
    <diagram id="LD_fphp6oKkYH8Suezgv" name="Page-1">
        <mxGraphModel dx="584" dy="654" grid="1" gridSize="1" guides="1" tooltips="1" connect="1" arrows="1" fold="1" page="1" pageScale="1" pageWidth="827" pageHeight="1169" math="0" shadow="0">
            <root>
                <mxCell id="0"/>
                <mxCell id="1" parent="0"/>
                <mxCell id="6" value="Administrator&lt;br&gt;" style="shape=umlActor;verticalLabelPosition=bottom;verticalAlign=top;html=1;movable=0;resizable=0;rotatable=0;deletable=0;editable=0;connectable=0;" vertex="1" parent="1">
                    <mxGeometry x="140" y="710" width="30" height="60" as="geometry"/>
                </mxCell>
                <mxCell id="10" value="" style="group;movable=0;resizable=0;rotatable=0;deletable=0;editable=0;connectable=0;" vertex="1" connectable="0" parent="1">
                    <mxGeometry x="50" y="260" width="120" height="170" as="geometry"/>
                </mxCell>
                <mxCell id="2" value="Uporabnik&lt;br&gt;" style="shape=umlActor;verticalLabelPosition=bottom;verticalAlign=top;html=1;" vertex="1" parent="10">
                    <mxGeometry x="90" y="70" width="30" height="60" as="geometry"/>
                </mxCell>
                <mxCell id="4" value="Pripravnik" style="shape=umlActor;verticalLabelPosition=bottom;verticalAlign=top;html=1;" vertex="1" parent="10">
                    <mxGeometry width="30" height="60" as="geometry"/>
                </mxCell>
                <mxCell id="7" style="edgeStyle=none;html=1;endArrow=block;endFill=0;" edge="1" parent="10">
                    <mxGeometry relative="1" as="geometry">
                        <mxPoint x="40" y="130" as="sourcePoint"/>
                        <mxPoint x="80" y="100" as="targetPoint"/>
                    </mxGeometry>
                </mxCell>
                <mxCell id="5" value="Lovec" style="shape=umlActor;verticalLabelPosition=bottom;verticalAlign=top;html=1;" vertex="1" parent="10">
                    <mxGeometry y="110" width="30" height="60" as="geometry"/>
                </mxCell>
                <mxCell id="8" style="edgeStyle=none;html=1;endArrow=block;endFill=0;" edge="1" parent="10">
                    <mxGeometry relative="1" as="geometry">
                        <mxPoint x="40" y="20" as="sourcePoint"/>
                        <mxPoint x="80" y="60" as="targetPoint"/>
                    </mxGeometry>
                </mxCell>
                <mxCell id="12" value="" style="group;movable=0;resizable=0;rotatable=0;deletable=0;editable=0;connectable=0;" vertex="1" connectable="0" parent="1">
                    <mxGeometry x="210" y="20" width="510" height="1100" as="geometry"/>
                </mxCell>
                <mxCell id="9" value="" style="rounded=0;whiteSpace=wrap;html=1;movable=1;resizable=1;rotatable=1;deletable=1;editable=1;connectable=1;fontSize=11;" vertex="1" parent="12">
                    <mxGeometry width="510" height="1100" as="geometry"/>
                </mxCell>
                <mxCell id="11" value="&lt;b&gt;Lovec aplikacija&lt;/b&gt;" style="text;html=1;strokeColor=none;fillColor=none;align=center;verticalAlign=middle;whiteSpace=wrap;rounded=0;" vertex="1" parent="12">
                    <mxGeometry x="177.5" width="155" height="30" as="geometry"/>
                </mxCell>
                <mxCell id="13" value="Ogled dnevnikov" style="ellipse;whiteSpace=wrap;html=1;" vertex="1" parent="12">
                    <mxGeometry x="20" y="40" width="170" height="30" as="geometry"/>
                </mxCell>
                <mxCell id="17" style="edgeStyle=none;html=1;exitX=0;exitY=0.5;exitDx=0;exitDy=0;entryX=1;entryY=0.5;entryDx=0;entryDy=0;strokeWidth=1;endArrow=classic;endFill=1;dashed=1;" edge="1" parent="12" source="14" target="13">
                    <mxGeometry relative="1" as="geometry"/>
                </mxCell>
                <mxCell id="18" value="&amp;lt;&amp;lt;extends&amp;gt;&amp;gt;" style="edgeLabel;html=1;align=center;verticalAlign=middle;resizable=0;points=[];" vertex="1" connectable="0" parent="17">
                    <mxGeometry x="-0.1636" y="-1" relative="1" as="geometry">
                        <mxPoint x="-9" y="1" as="offset"/>
                    </mxGeometry>
                </mxCell>
                <mxCell id="14" value="Vnos dnevnika" style="ellipse;whiteSpace=wrap;html=1;" vertex="1" parent="12">
                    <mxGeometry x="300" y="40" width="170" height="30" as="geometry"/>
                </mxCell>
                <mxCell id="22" value="Ogled zemljevida" style="ellipse;whiteSpace=wrap;html=1;" vertex="1" parent="12">
                    <mxGeometry x="20" y="348" width="170" height="30" as="geometry"/>
                </mxCell>
                <mxCell id="25" value="Upravljanje revirjev" style="ellipse;whiteSpace=wrap;html=1;" vertex="1" parent="12">
                    <mxGeometry x="21" y="449" width="170" height="30" as="geometry"/>
                </mxCell>
                <mxCell id="31" style="edgeStyle=none;html=1;exitX=1;exitY=0.5;exitDx=0;exitDy=0;entryX=0;entryY=0.5;entryDx=0;entryDy=0;strokeWidth=1;startArrow=classic;startFill=1;endArrow=none;endFill=0;dashed=1;" edge="1" parent="12" source="27" target="28">
                    <mxGeometry relative="1" as="geometry"/>
                </mxCell>
                <mxCell id="32" value="&amp;lt;&amp;lt;extends&amp;gt;&amp;gt;" style="edgeLabel;html=1;align=center;verticalAlign=middle;resizable=0;points=[];" vertex="1" connectable="0" parent="31">
                    <mxGeometry x="-0.1536" y="1" relative="1" as="geometry">
                        <mxPoint x="8" as="offset"/>
                    </mxGeometry>
                </mxCell>
                <mxCell id="27" value="Ogled jag" style="ellipse;whiteSpace=wrap;html=1;" vertex="1" parent="12">
                    <mxGeometry x="20" y="98" width="170" height="30" as="geometry"/>
                </mxCell>
                <mxCell id="28" value="Vnos jage" style="ellipse;whiteSpace=wrap;html=1;" vertex="1" parent="12">
                    <mxGeometry x="300" y="84" width="170" height="30" as="geometry"/>
                </mxCell>
                <mxCell id="35" value="Ogled dnevnikov pripravnikov" style="ellipse;whiteSpace=wrap;html=1;" vertex="1" parent="12">
                    <mxGeometry x="20" y="397" width="170" height="30" as="geometry"/>
                </mxCell>
                <mxCell id="41" value="Ogled opreme" style="ellipse;whiteSpace=wrap;html=1;" vertex="1" parent="12">
                    <mxGeometry x="20" y="166" width="170" height="30" as="geometry"/>
                </mxCell>
                <mxCell id="44" style="edgeStyle=none;html=1;exitX=0;exitY=0.5;exitDx=0;exitDy=0;entryX=1;entryY=0.5;entryDx=0;entryDy=0;dashed=1;strokeWidth=1;startArrow=none;startFill=0;endArrow=classic;endFill=1;" edge="1" parent="12" source="42" target="41">
                    <mxGeometry relative="1" as="geometry"/>
                </mxCell>
                <mxCell id="45" value="&amp;lt;&amp;lt;extends&amp;gt;&amp;gt;" style="edgeLabel;html=1;align=center;verticalAlign=middle;resizable=0;points=[];" vertex="1" connectable="0" parent="44">
                    <mxGeometry x="0.1743" y="-1" relative="1" as="geometry">
                        <mxPoint x="10" y="2" as="offset"/>
                    </mxGeometry>
                </mxCell>
                <mxCell id="42" value="Vnos opreme" style="ellipse;whiteSpace=wrap;html=1;" vertex="1" parent="12">
                    <mxGeometry x="300" y="166" width="170" height="30" as="geometry"/>
                </mxCell>
                <mxCell id="48" value="Ogled vplenov" style="ellipse;whiteSpace=wrap;html=1;" vertex="1" parent="12">
                    <mxGeometry x="20" y="242" width="170" height="30" as="geometry"/>
                </mxCell>
                <mxCell id="49" style="edgeStyle=none;html=1;exitX=0;exitY=0.5;exitDx=0;exitDy=0;entryX=1;entryY=0.5;entryDx=0;entryDy=0;dashed=1;strokeWidth=1;startArrow=none;startFill=0;endArrow=classic;endFill=1;" edge="1" parent="12" source="51" target="48">
                    <mxGeometry relative="1" as="geometry"/>
                </mxCell>
                <mxCell id="50" value="&amp;lt;&amp;lt;extends&amp;gt;&amp;gt;" style="edgeLabel;html=1;align=center;verticalAlign=middle;resizable=0;points=[];" vertex="1" connectable="0" parent="49">
                    <mxGeometry x="0.1743" y="-1" relative="1" as="geometry">
                        <mxPoint x="10" y="-1" as="offset"/>
                    </mxGeometry>
                </mxCell>
                <mxCell id="51" value="Vnos vplena" style="ellipse;whiteSpace=wrap;html=1;" vertex="1" parent="12">
                    <mxGeometry x="300" y="214" width="170" height="30" as="geometry"/>
                </mxCell>
                <mxCell id="80" style="edgeStyle=none;html=1;exitX=0;exitY=0.5;exitDx=0;exitDy=0;entryX=1;entryY=0.5;entryDx=0;entryDy=0;strokeWidth=1;startArrow=none;startFill=0;endArrow=classic;endFill=1;dashed=1;" edge="1" parent="12" source="79" target="48">
                    <mxGeometry relative="1" as="geometry"/>
                </mxCell>
                <mxCell id="81" value="&amp;lt;&amp;lt;extends&amp;gt;&amp;gt;" style="edgeLabel;html=1;align=center;verticalAlign=middle;resizable=0;points=[];" vertex="1" connectable="0" parent="80">
                    <mxGeometry x="0.0507" y="1" relative="1" as="geometry">
                        <mxPoint x="3" y="-2" as="offset"/>
                    </mxGeometry>
                </mxCell>
                <mxCell id="79" value="Ogled podrobnosti vplena" style="ellipse;whiteSpace=wrap;html=1;" vertex="1" parent="12">
                    <mxGeometry x="300" y="262" width="170" height="30" as="geometry"/>
                </mxCell>
                <mxCell id="82" value="Ogled profila" style="ellipse;whiteSpace=wrap;html=1;" vertex="1" parent="12">
                    <mxGeometry x="20" y="299" width="170" height="30" as="geometry"/>
                </mxCell>
                <mxCell id="85" style="edgeStyle=none;html=1;exitX=0;exitY=0.5;exitDx=0;exitDy=0;entryX=1;entryY=0.5;entryDx=0;entryDy=0;dashed=1;strokeWidth=1;fontFamily=Helvetica;fontSize=12;fontColor=rgb(0, 0, 0);startArrow=classic;startFill=1;endArrow=none;endFill=0;" edge="1" parent="12" source="83" target="22">
                    <mxGeometry relative="1" as="geometry"/>
                </mxCell>
                <mxCell id="86" value="&lt;font style=&quot;font-size: 11px;&quot;&gt;&amp;lt;&amp;lt;includes&amp;gt;&amp;gt;&lt;/font&gt;" style="edgeLabel;html=1;align=center;verticalAlign=middle;resizable=0;points=[];fontSize=12;fontFamily=Helvetica;fontColor=rgb(0, 0, 0);" vertex="1" connectable="0" parent="85">
                    <mxGeometry x="-0.1566" relative="1" as="geometry">
                        <mxPoint as="offset"/>
                    </mxGeometry>
                </mxCell>
                <mxCell id="83" value="Rezervacija opazovalnice" style="ellipse;whiteSpace=wrap;html=1;" vertex="1" parent="12">
                    <mxGeometry x="300" y="331" width="170" height="30" as="geometry"/>
                </mxCell>
                <mxCell id="87" style="edgeStyle=none;html=1;exitX=0;exitY=0.5;exitDx=0;exitDy=0;entryX=1;entryY=0.5;entryDx=0;entryDy=0;dashed=1;strokeWidth=1;fontFamily=Helvetica;fontSize=11;fontColor=rgb(0, 0, 0);startArrow=none;startFill=0;endArrow=classic;endFill=1;" edge="1" parent="12" source="84" target="22">
                    <mxGeometry relative="1" as="geometry"/>
                </mxCell>
                <mxCell id="88" value="&amp;lt;&amp;lt;extends&amp;gt;&amp;gt;" style="edgeLabel;html=1;align=center;verticalAlign=middle;resizable=0;points=[];fontSize=11;fontFamily=Helvetica;fontColor=rgb(0, 0, 0);" vertex="1" connectable="0" parent="87">
                    <mxGeometry x="-0.1509" y="-1" relative="1" as="geometry">
                        <mxPoint y="-7" as="offset"/>
                    </mxGeometry>
                </mxCell>
                <mxCell id="84" value="Ogled opazovalnice" style="ellipse;whiteSpace=wrap;html=1;" vertex="1" parent="12">
                    <mxGeometry x="300" y="381" width="170" height="30" as="geometry"/>
                </mxCell>
                <mxCell id="89" value="Upravljanje opazovalnic" style="ellipse;whiteSpace=wrap;html=1;" vertex="1" parent="12">
                    <mxGeometry x="20" y="488" width="170" height="30" as="geometry"/>
                </mxCell>
                <mxCell id="100" style="edgeStyle=none;html=1;exitX=0;exitY=0.5;exitDx=0;exitDy=0;entryX=1;entryY=0.5;entryDx=0;entryDy=0;strokeWidth=1;fontFamily=Helvetica;fontSize=11;fontColor=rgb(0, 0, 0);startArrow=none;startFill=0;endArrow=classic;endFill=1;dashed=1;" edge="1" parent="12" source="99" target="27">
                    <mxGeometry relative="1" as="geometry"/>
                </mxCell>
                <mxCell id="101" value="&amp;lt;&amp;lt;extends&amp;gt;&amp;gt;" style="edgeLabel;html=1;align=center;verticalAlign=middle;resizable=0;points=[];fontSize=11;fontFamily=Helvetica;fontColor=rgb(0, 0, 0);" vertex="1" connectable="0" parent="100">
                    <mxGeometry x="-0.1154" y="1" relative="1" as="geometry">
                        <mxPoint x="-5" y="-2" as="offset"/>
                    </mxGeometry>
                </mxCell>
                <mxCell id="99" value="Ogled podrobnosti jage" style="ellipse;whiteSpace=wrap;html=1;" vertex="1" parent="12">
                    <mxGeometry x="300" y="128" width="170" height="30" as="geometry"/>
                </mxCell>
                <mxCell id="15" style="edgeStyle=orthogonalEdgeStyle;html=1;exitX=1;exitY=0.3333333333333333;exitDx=0;exitDy=0;exitPerimeter=0;entryX=0;entryY=0.5;entryDx=0;entryDy=0;strokeWidth=1;endArrow=classic;endFill=1;strokeColor=none;curved=1;" edge="1" parent="1" source="4" target="13">
                    <mxGeometry relative="1" as="geometry"/>
                </mxCell>
                <mxCell id="16" style="html=1;strokeWidth=1;endArrow=classic;endFill=1;entryX=0;entryY=0.5;entryDx=0;entryDy=0;" edge="1" parent="1" target="13">
                    <mxGeometry relative="1" as="geometry">
                        <mxPoint x="230" y="70" as="targetPoint"/>
                        <mxPoint x="90" y="270" as="sourcePoint"/>
                    </mxGeometry>
                </mxCell>
                <mxCell id="19" value="Zemljevid API" style="shape=umlActor;verticalLabelPosition=bottom;verticalAlign=top;html=1;movable=0;resizable=0;rotatable=0;deletable=0;editable=0;connectable=0;" vertex="1" parent="1">
                    <mxGeometry x="810" y="510" width="30" height="60" as="geometry"/>
                </mxCell>
                <mxCell id="24" style="edgeStyle=none;html=1;exitX=1;exitY=0.5;exitDx=0;exitDy=0;strokeWidth=1;endArrow=none;endFill=0;startArrow=classic;startFill=1;" edge="1" parent="1" source="22">
                    <mxGeometry relative="1" as="geometry">
                        <mxPoint x="800" y="530" as="targetPoint"/>
                    </mxGeometry>
                </mxCell>
                <mxCell id="26" style="edgeStyle=none;html=1;exitX=1;exitY=0.5;exitDx=0;exitDy=0;strokeWidth=1;startArrow=classic;startFill=1;endArrow=none;endFill=0;" edge="1" parent="1" source="25">
                    <mxGeometry relative="1" as="geometry">
                        <mxPoint x="800" y="540" as="targetPoint"/>
                    </mxGeometry>
                </mxCell>
                <mxCell id="36" style="edgeStyle=none;html=1;entryX=0;entryY=0.5;entryDx=0;entryDy=0;strokeWidth=1;startArrow=none;startFill=0;endArrow=classic;endFill=1;" edge="1" parent="1" target="35">
                    <mxGeometry relative="1" as="geometry">
                        <mxPoint x="80" y="400" as="sourcePoint"/>
                    </mxGeometry>
                </mxCell>
                <mxCell id="56" style="edgeStyle=none;html=1;exitX=1;exitY=0.5;exitDx=0;exitDy=0;strokeWidth=1;startArrow=classic;startFill=1;endArrow=none;endFill=0;" edge="1" parent="1" source="79">
                    <mxGeometry relative="1" as="geometry">
                        <mxPoint x="802.6666666666666" y="521" as="targetPoint"/>
                    </mxGeometry>
                </mxCell>
                <mxCell id="90" style="edgeStyle=none;html=1;exitX=1;exitY=0.5;exitDx=0;exitDy=0;strokeWidth=1;fontFamily=Helvetica;fontSize=11;fontColor=rgb(0, 0, 0);startArrow=classic;startFill=1;endArrow=none;endFill=0;" edge="1" parent="1" source="51">
                    <mxGeometry relative="1" as="geometry">
                        <mxPoint x="811" y="504" as="targetPoint"/>
                    </mxGeometry>
                </mxCell>
                <mxCell id="91" style="edgeStyle=none;html=1;exitX=1;exitY=0.5;exitDx=0;exitDy=0;strokeWidth=1;fontFamily=Helvetica;fontSize=11;fontColor=rgb(0, 0, 0);startArrow=classic;startFill=1;endArrow=none;endFill=0;" edge="1" parent="1" source="89">
                    <mxGeometry relative="1" as="geometry">
                        <mxPoint x="800" y="554" as="targetPoint"/>
                    </mxGeometry>
                </mxCell>
                <mxCell id="92" style="edgeStyle=none;html=1;exitX=0;exitY=0.5;exitDx=0;exitDy=0;strokeWidth=1;fontFamily=Helvetica;fontSize=11;fontColor=rgb(0, 0, 0);startArrow=classic;startFill=1;endArrow=none;endFill=0;" edge="1" parent="1" source="27">
                    <mxGeometry relative="1" as="geometry">
                        <mxPoint x="173.9999999999999" y="331" as="targetPoint"/>
                    </mxGeometry>
                </mxCell>
                <mxCell id="93" style="edgeStyle=none;html=1;exitX=0;exitY=0.5;exitDx=0;exitDy=0;strokeWidth=1;fontFamily=Helvetica;fontSize=11;fontColor=rgb(0, 0, 0);startArrow=classic;startFill=1;endArrow=none;endFill=0;" edge="1" parent="1" source="41">
                    <mxGeometry relative="1" as="geometry">
                        <mxPoint x="180" y="339" as="targetPoint"/>
                    </mxGeometry>
                </mxCell>
                <mxCell id="94" style="edgeStyle=none;html=1;exitX=0;exitY=0.5;exitDx=0;exitDy=0;strokeWidth=1;fontFamily=Helvetica;fontSize=11;fontColor=rgb(0, 0, 0);startArrow=classic;startFill=1;endArrow=none;endFill=0;" edge="1" parent="1" source="48">
                    <mxGeometry relative="1" as="geometry">
                        <mxPoint x="187" y="344" as="targetPoint"/>
                    </mxGeometry>
                </mxCell>
                <mxCell id="95" style="edgeStyle=none;html=1;exitX=0;exitY=0.5;exitDx=0;exitDy=0;strokeWidth=1;fontFamily=Helvetica;fontSize=11;fontColor=rgb(0, 0, 0);startArrow=classic;startFill=1;endArrow=none;endFill=0;" edge="1" parent="1" source="82">
                    <mxGeometry relative="1" as="geometry">
                        <mxPoint x="190" y="354" as="targetPoint"/>
                    </mxGeometry>
                </mxCell>
                <mxCell id="96" style="edgeStyle=none;html=1;exitX=0;exitY=0.5;exitDx=0;exitDy=0;strokeWidth=1;fontFamily=Helvetica;fontSize=11;fontColor=rgb(0, 0, 0);startArrow=classic;startFill=1;endArrow=none;endFill=0;" edge="1" parent="1" source="22">
                    <mxGeometry relative="1" as="geometry">
                        <mxPoint x="187" y="370" as="targetPoint"/>
                    </mxGeometry>
                </mxCell>
            </root>
        </mxGraphModel>
    </diagram>
</mxfile>